<svg viewBox="0 0 471.914 330.227" xmlns="http://www.w3.org/2000/svg" xmlns:xlink="http://www.w3.org/1999/xlink">
  <symbol id="a" overflow="visible">
    <path d="M4.547-8.844c1.082 0 1.926.29 2.531.86.602.574.938 1.226 1 1.953h-1.14c-.125-.551-.383-.989-.766-1.313-.387-.32-.93-.484-1.625-.484-.844 0-1.527.297-2.047.89-.523.594-.781 1.508-.781 2.735 0 1.012.234 1.836.703 2.469.469.625 1.172.937 2.11.937.85 0 1.507-.332 1.968-1 .227-.344.406-.8.531-1.375h1.125c-.094.906-.43 1.668-1 2.281C6.47-.148 5.546.22 4.391.22c-1 0-1.84-.301-2.516-.906C.977-1.489.531-2.724.531-4.392c0-1.27.332-2.312 1-3.125.727-.882 1.735-1.328 3.016-1.328zm-.234 0"/>
  </symbol>
  <symbol id="b" overflow="visible">
    <path d="M3.266-.688c.695 0 1.175-.257 1.437-.78.258-.532.39-1.118.39-1.766 0-.594-.093-1.07-.28-1.438-.305-.57-.813-.86-1.532-.86-.648 0-1.117.247-1.406.735-.293.492-.438 1.086-.438 1.781 0 .668.145 1.227.438 1.672.29.438.754.657 1.39.657zm.046-5.765c.801 0 1.477.273 2.032.812.562.532.843 1.325.843 2.375 0 1.012-.246 1.852-.734 2.516-.492.656-1.25.984-2.281.984-.867 0-1.555-.289-2.063-.875C.598-1.234.344-2.02.344-3c0-1.05.265-1.89.797-2.516.539-.625 1.265-.937 2.171-.937zm-.046.031"/>
  </symbol>
  <symbol id="c" overflow="visible">
    <path d="M1.406-1.969c.032.356.117.625.266.813.258.336.719.5 1.375.5.394 0 .738-.082 1.031-.25.3-.164.453-.426.453-.781 0-.27-.12-.477-.36-.625-.155-.083-.46-.18-.905-.297l-.844-.204c-.531-.132-.922-.285-1.172-.453-.46-.28-.688-.675-.688-1.187 0-.594.211-1.07.641-1.438.426-.363 1.004-.546 1.734-.546.938 0 1.614.277 2.032.828.27.355.398.734.39 1.14h-1a1.317 1.317 0 0 0-.25-.656c-.242-.27-.664-.406-1.265-.406-.399 0-.7.078-.906.234a.699.699 0 0 0-.297.594c0 .273.132.492.406.656.156.094.383.18.687.25l.688.172c.758.188 1.27.367 1.531.531.406.274.61.7.61 1.281 0 .555-.215 1.032-.641 1.438-.418.406-1.059.61-1.922.61-.938 0-1.605-.212-2-.626C.613-.816.41-1.344.39-1.969zm1.547-4.453"/>
  </symbol>
  <symbol id="d" overflow="visible">
    <path d="M.984-8.031h1.063v1.75h1v.86h-1v4.109c0 .218.078.367.234.437.07.043.207.063.406.063h.157c.062-.008.129-.016.203-.016V0a2.21 2.21 0 0 1-.375.063c-.125.019-.266.03-.422.03-.492 0-.824-.124-1-.374-.18-.25-.266-.578-.266-.985v-4.156H.141v-.86h.843zm0 0"/>
  </symbol>
  <symbol id="f" overflow="visible">
    <path d="M1.031-7.234c.02-.438.098-.754.235-.954.25-.363.722-.546 1.421-.546.07 0 .141.007.204.015.07 0 .156.008.25.016v.953c-.118-.008-.2-.016-.25-.016h-.125c-.325 0-.516.086-.579.25-.062.168-.093.59-.093 1.266H3.14v.828H2.078V0H1.031v-5.422h-.86v-.828h.86zm0 0"/>
  </symbol>
  <symbol id="g" overflow="visible">
    <path d="M1.578-1.672c0 .305.11.543.328.719.227.18.492.265.797.265.375 0 .735-.082 1.078-.25.594-.289.89-.757.89-1.406v-.844a2.78 2.78 0 0 1-.515.204c-.199.054-.398.09-.593.109l-.626.078c-.386.055-.68.137-.874.25-.325.18-.485.469-.485.875zm2.563-2.125c.238-.031.398-.133.484-.312.04-.094.063-.227.063-.407 0-.351-.133-.609-.391-.765-.25-.164-.61-.25-1.078-.25-.555 0-.946.148-1.172.437-.137.168-.227.414-.266.735H.797c.02-.77.27-1.305.75-1.61.488-.3 1.05-.453 1.687-.453.739 0 1.336.14 1.797.422.457.281.688.719.688 1.313v3.609c0 .105.02.195.062.266.051.062.149.093.297.093h.14c.063-.008.13-.02.204-.031v.781c-.168.04-.297.067-.39.078-.087.02-.2.032-.345.032-.367 0-.625-.133-.78-.391-.095-.133-.157-.328-.188-.578-.219.281-.532.527-.938.734A2.805 2.805 0 0 1 2.47.22c-.586 0-1.063-.18-1.438-.531C.664-.664.484-1.11.484-1.641c0-.582.18-1.035.547-1.359.364-.32.836-.52 1.422-.594zm-.875-2.625"/>
  </symbol>
  <symbol id="h" overflow="visible">
    <path d="M3.188-6.453c.707 0 1.28.172 1.718.516.446.343.719.933.813 1.765H4.687c-.062-.383-.203-.703-.421-.953-.22-.258-.579-.39-1.079-.39-.667 0-1.148.327-1.437.984-.188.43-.281.953-.281 1.578s.129 1.156.39 1.594c.27.43.692.64 1.266.64.438 0 .781-.133 1.031-.406.258-.27.438-.633.532-1.094h1.03c-.116.836-.405 1.446-.874 1.828-.469.387-1.07.579-1.797.579-.824 0-1.48-.301-1.969-.907C.586-1.32.344-2.07.344-2.969c0-1.101.265-1.957.797-2.562.539-.614 1.222-.922 2.046-.922zm-.157.031"/>
  </symbol>
  <symbol id="i" overflow="visible">
    <path d="M1.453-3.047c0 .543.078.996.234 1.36.27.656.75.984 1.438.984.738 0 1.242-.344 1.516-1.031.156-.383.234-.868.234-1.454 0-.55-.086-1.003-.25-1.359-.281-.625-.781-.937-1.5-.937-.46 0-.855.199-1.188.593-.324.399-.484 1.012-.484 1.844zm1.563-3.375c.52 0 .957.133 1.312.39.195.15.383.356.563.626v-.875h1V2.5H4.828V-.719c-.18.281-.422.508-.734.672-.305.164-.688.25-1.157.25-.667 0-1.265-.258-1.796-.781C.617-1.11.359-1.91.359-2.984c0-1 .243-1.82.735-2.47.488-.644 1.129-.968 1.922-.968zm0 0"/>
  </symbol>
  <symbol id="j" overflow="visible">
    <path d="M1.828-6.281v4.172c0 .324.05.586.156.78.188.376.536.563 1.047.563.727 0 1.227-.328 1.5-.984.145-.352.219-.832.219-1.438V-6.28h1.047V0h-.984v-.922a2.022 2.022 0 0 1-.5.594c-.407.332-.899.5-1.47.5-.898 0-1.507-.3-1.827-.906C.836-1.047.75-1.473.75-2.016V-6.28zm1.453-.14"/>
  </symbol>
  <symbol id="k" overflow="visible">
    <path d="M.781-6.25h1.063V0H.78zm0-2.36h1.063v1.204H.78zm0 0"/>
  </symbol>
  <symbol id="l" overflow="visible">
    <path d="M.797-6.281h1.015v1.093c.07-.218.27-.476.594-.78.32-.302.692-.454 1.11-.454.02 0 .05.008.093.016.051 0 .133.008.25.015v1.11c-.062-.008-.12-.016-.171-.016h-.172c-.532 0-.946.172-1.235.516A1.77 1.77 0 0 0 1.86-3.61V0H.797zm0 0"/>
  </symbol>
  <symbol id="m" overflow="visible">
    <path d="M3.39-6.422c.446 0 .88.106 1.297.313.415.21.735.48.954.812.207.324.347.695.421 1.11.063.292.094.757.094 1.39h-4.61c.02.637.173 1.149.454 1.531.281.387.719.579 1.313.579.55 0 .988-.18 1.312-.547.188-.207.32-.454.406-.735h1.032c-.024.23-.11.485-.266.766s-.328.516-.516.703a2.46 2.46 0 0 1-1.203.625c-.25.063-.539.094-.86.094a2.646 2.646 0 0 1-1.984-.844c-.543-.57-.812-1.367-.812-2.39 0-1.008.27-1.829.812-2.454.551-.633 1.27-.953 2.157-.953zM5.063-3.64c-.042-.457-.14-.82-.296-1.093-.282-.508-.762-.766-1.438-.766-.492 0-.902.18-1.234.531-.324.344-.496.79-.516 1.328zm-1.78-2.78"/>
  </symbol>
  <symbol id="n" overflow="visible">
    <path d="M1.172-8.61h1.187V0H1.172zm0 0"/>
  </symbol>
  <symbol id="o" overflow="visible">
    <path d="M.781-6.281h1v.89c.29-.363.602-.625.938-.78.332-.165.703-.25 1.11-.25.882 0 1.483.312 1.796.937.176.343.266.828.266 1.453V0H4.812v-3.953c0-.383-.058-.692-.171-.922-.188-.395-.528-.594-1.016-.594-.25 0-.453.028-.61.078a1.577 1.577 0 0 0-.765.516 1.52 1.52 0 0 0-.344.64c-.054.22-.078.54-.078.954V0H.781zm2.469-.14"/>
  </symbol>
  <symbol id="p" overflow="visible">
    <path d="M.797-8.61h1.062V0H.797zm0 0"/>
  </symbol>
  <symbol id="q" overflow="visible">
    <path d="m1.297-6.281 1.672 5.11 1.75-5.11h1.156L3.5 0H2.375L.062-6.281zm0 0"/>
  </symbol>
  <symbol id="r" overflow="visible">
    <path d="m1.266-6.281 1.203 4.953 1.219-4.953h1.187L6.109-1.36l1.282-4.922h1.046L6.625 0H5.531L4.25-4.86 3.016 0H1.922L.109-6.281zm0 0"/>
  </symbol>
  <symbol id="s" overflow="visible">
    <path d="M2.734-8.61h.891L.891 0H0zm0 0"/>
  </symbol>
  <symbol id="t" overflow="visible">
    <path d="M1.438-3.063c0 .668.14 1.231.421 1.688.29.45.75.672 1.375.672.489 0 .891-.207 1.204-.625.32-.414.484-1.02.484-1.813 0-.789-.168-1.375-.5-1.75-.324-.382-.719-.578-1.188-.578-.53 0-.964.203-1.296.61-.336.406-.5 1.007-.5 1.796zM3.03-6.39c.477 0 .88.106 1.203.313.188.117.399.32.641.61v-3.173h1.016V0h-.954v-.875c-.242.387-.53.668-.875.844-.335.164-.718.25-1.156.25-.699 0-1.304-.29-1.812-.875C.582-1.25.328-2.031.328-3c0-.914.234-1.707.703-2.375.469-.676 1.133-1.016 2-1.016zm0 0"/>
  </symbol>
  <symbol id="u" overflow="visible">
    <path d="M3.422-.703c.488 0 .894-.207 1.219-.625.332-.414.5-1.031.5-1.844 0-.5-.075-.93-.22-1.297-.273-.687-.773-1.031-1.5-1.031-.73 0-1.23.367-1.5 1.094-.148.386-.218.883-.218 1.484 0 .492.07.902.219 1.235.27.656.77.984 1.5.984zM.687-6.25H1.72v.828c.207-.281.437-.5.687-.656.352-.227.77-.344 1.25-.344.719 0 1.32.274 1.813.813.5.543.75 1.32.75 2.328 0 1.375-.36 2.355-1.078 2.937A2.39 2.39 0 0 1 3.562.22c-.468 0-.867-.106-1.187-.313-.188-.125-.398-.328-.625-.61V2.5H.687zm0 0"/>
  </symbol>
  <symbol id="v" overflow="visible">
    <path d="M4.688-6.281h1.171a366.11 366.11 0 0 0-.984 2.765A151.46 151.46 0 0 1 3.906-.89C3.301.711 2.875 1.691 2.625 2.047c-.25.351-.684.531-1.297.531-.148 0-.262-.012-.344-.031a3.486 3.486 0 0 1-.296-.063v-.953c.187.051.32.082.406.094.082.008.156.016.218.016.188 0 .329-.032.422-.094s.172-.14.235-.234c.02-.032.086-.196.203-.485.125-.293.21-.508.265-.64L.126-6.282h1.188L3-1.171zM3-6.421"/>
  </symbol>
  <symbol id="w" overflow="visible">
    <path d="M2.984-6.39c.5 0 .93.12 1.297.359.196.148.399.351.61.61v-.798h.968v5.703c0 .801-.117 1.43-.343 1.891-.438.852-1.266 1.281-2.485 1.281-.68 0-1.246-.152-1.703-.453C.868 1.898.61 1.426.547.781h1.078c.05.281.148.5.297.656.238.227.613.344 1.125.344.812 0 1.344-.289 1.594-.86.144-.335.21-.929.203-1.796a2.03 2.03 0 0 1-.766.719C3.785 0 3.395.078 2.906.078c-.68 0-1.273-.238-1.781-.719C.613-1.129.359-1.93.359-3.047c0-1.05.254-1.867.766-2.453.52-.594 1.14-.89 1.86-.89zm1.907 3.218c0-.77-.164-1.344-.485-1.719a1.544 1.544 0 0 0-1.218-.562c-.75 0-1.262.351-1.532 1.047-.148.367-.218.851-.218 1.453 0 .71.14 1.25.421 1.625.29.367.68.547 1.172.547.758 0 1.29-.344 1.594-1.031.176-.383.266-.836.266-1.36zm-1.782-3.25"/>
  </symbol>
  <symbol id="x" overflow="visible">
    <path d="M.781-8.64h1.047v3.218c.25-.32.473-.547.672-.672.344-.218.77-.328 1.281-.328.906 0 1.52.32 1.844.953.176.344.266.824.266 1.438V0H4.812v-3.953c0-.457-.062-.797-.187-1.016-.188-.343-.547-.515-1.078-.515-.438 0-.836.152-1.188.453-.355.304-.53.87-.53 1.703V0H.78zm0 0"/>
  </symbol>
  <symbol id="y" overflow="visible">
    <path d="M1.031-8.61h6.266v1.063h-5.14v2.61h4.765v1H2.156v2.906h5.235V0H1.03zm3.172 0"/>
  </symbol>
  <symbol id="z" overflow="visible">
    <path d="M5.328-3.531 4.031-7.328l-1.39 3.797zM3.422-8.61h1.312L7.86 0H6.58l-.876-2.578H2.297L1.375 0H.172zm0 0"/>
  </symbol>
  <symbol id="A" overflow="visible">
    <path d="M.781-6.281h1.031v.89c.25-.3.477-.523.688-.671.344-.239.738-.36 1.188-.36.5 0 .898.125 1.203.375.164.137.32.344.468.625.227-.344.5-.594.813-.75.32-.164.68-.25 1.078-.25.844 0 1.414.309 1.719.922.164.324.25.766.25 1.328V0H8.125v-4.36c0-.413-.105-.702-.313-.859a1.248 1.248 0 0 0-.765-.234c-.418 0-.777.14-1.078.422-.293.273-.438.73-.438 1.375V0H4.453v-4.094c0-.426-.055-.738-.156-.937-.156-.29-.453-.438-.89-.438-.4 0-.762.157-1.095.469-.324.305-.484.86-.484 1.672V0H.781zm0 0"/>
  </symbol>
  <symbol id="B" overflow="visible">
    <path d="M7.172-8.61v1.032h-2.89V0H3.093v-7.578H.188V-8.61zm0 0"/>
  </symbol>
  <symbol id="C" overflow="visible">
    <path d="M3.547-8.75C2.93-7.562 2.535-6.687 2.359-6.125c-.28.867-.421 1.855-.421 2.969 0 1.136.16 2.172.484 3.11.187.581.566 1.413 1.14 2.5H2.86c-.574-.9-.93-1.47-1.062-1.72a7.037 7.037 0 0 1-.438-1 8.5 8.5 0 0 1-.468-1.843 7.782 7.782 0 0 1-.063-.97c0-1.155.18-2.187.547-3.093.227-.57.707-1.43 1.438-2.578zm0 0"/>
  </symbol>
  <symbol id="D" overflow="visible">
    <path d="M1 1.219c.27-.043.457-.23.563-.563.062-.18.093-.351.093-.515a.164.164 0 0 0-.015-.063V0H1v-1.281h1.25v1.187c0 .469-.094.875-.281 1.219-.188.352-.512.57-.969.656zm0 0"/>
  </symbol>
  <symbol id="E" overflow="visible">
    <path d="M1.031-1.281H2.25V0H1.031zm0 0"/>
  </symbol>
  <symbol id="F" overflow="visible">
    <path d="M.422 2.453C1.035 1.243 1.438.36 1.625-.203c.27-.832.406-1.817.406-2.953 0-1.125-.164-2.156-.484-3.094-.188-.582-.57-1.414-1.14-2.5h.702c.602.96.97 1.555 1.094 1.781.125.219.258.528.406.922.188.492.32.977.407 1.453.082.48.125.938.125 1.375 0 1.156-.188 2.188-.563 3.094-.23.582-.703 1.441-1.422 2.578zm0 0"/>
  </symbol>
  <symbol id="G" overflow="visible">
    <path d="M4.219-1c.394 0 .718-.04.968-.125.458-.145.833-.438 1.125-.875.227-.344.391-.785.485-1.328.062-.332.094-.633.094-.906 0-1.07-.215-1.899-.641-2.485-.418-.593-1.102-.89-2.047-.89H2.141V-1zM.969-8.61h3.484c1.188 0 2.102.422 2.75 1.266.582.75.875 1.719.875 2.907 0 .917-.172 1.746-.515 2.484C6.957-.648 5.913 0 4.438 0H.967zm0 0"/>
  </symbol>
  <symbol id="H" overflow="visible">
    <path d="M.688-8.64h1.03v3.124c.227-.3.505-.53.829-.687.32-.156.672-.234 1.047-.234.781 0 1.41.273 1.89.812.489.531.735 1.32.735 2.36 0 1-.242 1.828-.719 2.484-.48.656-1.148.984-2 .984-.48 0-.883-.117-1.203-.344-.2-.144-.406-.363-.625-.656V0H.688zm2.75 7.906c.57 0 1-.223 1.28-.672.282-.457.423-1.055.423-1.797 0-.664-.141-1.211-.422-1.64-.282-.438-.7-.657-1.25-.657-.48 0-.903.18-1.266.531-.367.356-.547.946-.547 1.766 0 .586.07 1.062.219 1.437.281.688.8 1.032 1.563 1.032zm0 0"/>
  </symbol>
  <symbol id="I" overflow="visible">
    <path d="M.172-6.281h1.375l1.437 2.218L4.438-6.28l1.28.031L3.61-3.219 5.813 0H4.468L2.906-2.36 1.406 0H.063L2.28-3.219zm0 0"/>
  </symbol>
  <symbol id="J" overflow="visible">
    <path d="M4.156-4.969c.489 0 .867-.066 1.14-.203.427-.219.641-.601.641-1.156 0-.563-.23-.942-.687-1.14-.25-.114-.633-.173-1.14-.173H2.03v2.672zM4.546-1c.708 0 1.22-.207 1.532-.625.188-.258.281-.57.281-.938 0-.624-.28-1.05-.843-1.28-.293-.126-.684-.188-1.172-.188H2.03V-1zM.892-8.61h3.687c1.008 0 1.727.305 2.156.907.25.355.375.766.375 1.234 0 .543-.156.985-.468 1.328-.157.188-.387.356-.688.5.438.168.766.36.984.579.395.375.594.89.594 1.546 0 .555-.18 1.055-.531 1.5C6.477-.336 5.656 0 4.531 0H.891zm0 0"/>
  </symbol>
  <symbol id="K" overflow="visible">
    <path d="M.75-8.61h1.016v5L4.469-6.28h1.343l-2.39 2.36L5.953 0H4.61L2.656-3.172l-.89.813V0H.75zm0 0"/>
  </symbol>
  <path d="m370.672 173.235-.082-4.805-.254-4.792-.418-4.786-.586-4.77-.75-4.741-.918-4.715-1.078-4.68-1.246-4.64-1.402-4.594-130.868 42.523zm0 0" style="fill:#66c2a3;stroke:#000;stroke-width:.75;stroke-linecap:round;stroke-linejoin:round;stroke-miterlimit:10"/>
  <path d="m368.977 151.708 6.796-1.074" style="fill:none;stroke:#000;stroke-width:.75;stroke-linecap:round;stroke-linejoin:round;stroke-miterlimit:10"/>
  <g transform="translate(-33.328 -71.566)">
    <use height="100%" width="100%" x="415.898" xlink:href="#a" y="224.293"/>
    <use height="100%" width="100%" x="424.564" xlink:href="#b" y="224.293"/>
    <use height="100%" width="100%" x="431.238" xlink:href="#c" y="224.293"/>
    <use height="100%" width="100%" x="437.238" xlink:href="#d" y="224.293"/>
    <use height="100%" width="100%" x="440.572" xlink:href="#e" y="224.293"/>
    <use height="100%" width="100%" x="443.906" xlink:href="#b" y="224.293"/>
    <use height="100%" width="100%" x="450.58" xlink:href="#f" y="224.293"/>
    <use height="100%" width="100%" x="453.914" xlink:href="#e" y="224.293"/>
    <use height="100%" width="100%" x="457.248" xlink:href="#g" y="224.293"/>
    <use height="100%" width="100%" x="463.922" xlink:href="#h" y="224.293"/>
    <use height="100%" width="100%" x="469.922" xlink:href="#i" y="224.293"/>
    <use height="100%" width="100%" x="476.596" xlink:href="#j" y="224.293"/>
    <use height="100%" width="100%" x="483.27" xlink:href="#k" y="224.293"/>
    <use height="100%" width="100%" x="485.936" xlink:href="#l" y="224.293"/>
    <use height="100%" width="100%" x="489.932" xlink:href="#m" y="224.293"/>
  </g>
  <path d="m363.938 130.712-1.84-5.29-2.055-5.214-2.262-5.125-2.472-5.031-2.672-4.922-2.875-4.813-116.692 72.918zm0 0" style="fill:#fa8c61;stroke:#000;stroke-width:.75;stroke-linecap:round;stroke-linejoin:round;stroke-miterlimit:10"/>
  <path d="m357.781 115.083 6.235-2.91" style="fill:none;stroke:#000;stroke-width:.75;stroke-linecap:round;stroke-linejoin:round;stroke-miterlimit:10"/>
  <g transform="translate(-33.328 -71.566)">
    <use height="100%" width="100%" x="403.578" xlink:href="#n" y="177.938"/>
    <use height="100%" width="100%" x="406.912" xlink:href="#o" y="177.938"/>
    <use height="100%" width="100%" x="413.586" xlink:href="#d" y="177.938"/>
    <use height="100%" width="100%" x="416.92" xlink:href="#m" y="177.938"/>
    <use height="100%" width="100%" x="423.594" xlink:href="#l" y="177.938"/>
    <use height="100%" width="100%" x="427.59" xlink:href="#o" y="177.938"/>
    <use height="100%" width="100%" x="434.264" xlink:href="#g" y="177.938"/>
    <use height="100%" width="100%" x="440.938" xlink:href="#p" y="177.938"/>
    <use height="100%" width="100%" x="443.604" xlink:href="#e" y="177.938"/>
    <use height="100%" width="100%" x="446.938" xlink:href="#l" y="177.938"/>
    <use height="100%" width="100%" x="450.934" xlink:href="#m" y="177.938"/>
    <use height="100%" width="100%" x="457.607" xlink:href="#q" y="177.938"/>
    <use height="100%" width="100%" x="463.607" xlink:href="#k" y="177.938"/>
    <use height="100%" width="100%" x="466.273" xlink:href="#m" y="177.938"/>
    <use height="100%" width="100%" x="472.947" xlink:href="#r" y="177.938"/>
    <use height="100%" width="100%" x="481.613" xlink:href="#m" y="177.938"/>
    <use height="100%" width="100%" x="488.287" xlink:href="#l" y="177.938"/>
    <use height="100%" width="100%" x="492.283" xlink:href="#c" y="177.938"/>
    <use height="100%" width="100%" x="498.283" xlink:href="#e" y="177.938"/>
    <use height="100%" width="100%" x="501.617" xlink:href="#s" y="177.938"/>
  </g>
  <g transform="translate(-33.328 -71.566)">
    <use height="100%" width="100%" x="403.578" xlink:href="#m" y="192.336"/>
    <use height="100%" width="100%" x="410.252" xlink:href="#t" y="192.336"/>
    <use height="100%" width="100%" x="416.926" xlink:href="#k" y="192.336"/>
    <use height="100%" width="100%" x="419.592" xlink:href="#d" y="192.336"/>
    <use height="100%" width="100%" x="422.926" xlink:href="#b" y="192.336"/>
    <use height="100%" width="100%" x="429.6" xlink:href="#l" y="192.336"/>
    <use height="100%" width="100%" x="433.596" xlink:href="#c" y="192.336"/>
  </g>
  <path d="m349.762 100.317-2.614-4.027-2.753-3.934-2.891-3.836-3.024-3.734-3.152-3.625-3.273-3.512-3.399-3.394-3.511-3.278-3.625-3.152-88.45 105.41zm0 0" style="fill:#8c9eca;stroke:#000;stroke-width:.75;stroke-linecap:round;stroke-linejoin:round;stroke-miterlimit:10"/>
  <path d="m336.918 82.962 5.195-4.516" style="fill:none;stroke:#000;stroke-width:.75;stroke-linecap:round;stroke-linejoin:round;stroke-miterlimit:10"/>
  <g transform="translate(-33.328 -71.566)">
    <use height="100%" width="100%" x="380.633" xlink:href="#a" y="148.594"/>
    <use height="100%" width="100%" x="389.299" xlink:href="#b" y="148.594"/>
    <use height="100%" width="100%" x="395.973" xlink:href="#u" y="148.594"/>
    <use height="100%" width="100%" x="402.646" xlink:href="#v" y="148.594"/>
    <use height="100%" width="100%" x="408.646" xlink:href="#l" y="148.594"/>
    <use height="100%" width="100%" x="412.643" xlink:href="#k" y="148.594"/>
    <use height="100%" width="100%" x="415.309" xlink:href="#w" y="148.594"/>
    <use height="100%" width="100%" x="421.982" xlink:href="#x" y="148.594"/>
    <use height="100%" width="100%" x="428.656" xlink:href="#d" y="148.594"/>
  </g>
  <path d="m321.52 67.825-4.004-3.23-4.121-3.082-4.235-2.926-4.34-2.766-4.437-2.601-4.535-2.43-4.625-2.262-58.153 124.707zm0 0" style="fill:#e68ac2;stroke:#000;stroke-width:.75;stroke-linecap:round;stroke-linejoin:round;stroke-miterlimit:10"/>
  <path d="m307.004 57.184 3.695-5.804" style="fill:none;stroke:#000;stroke-width:.75;stroke-linecap:round;stroke-linejoin:round;stroke-miterlimit:10"/>
  <g transform="translate(-33.328 -71.566)">
    <use height="100%" width="100%" x="347.727" xlink:href="#y" y="120.137"/>
    <use height="100%" width="100%" x="355.73" xlink:href="#t" y="120.137"/>
    <use height="100%" width="100%" x="362.404" xlink:href="#k" y="120.137"/>
    <use height="100%" width="100%" x="365.07" xlink:href="#d" y="120.137"/>
    <use height="100%" width="100%" x="368.404" xlink:href="#k" y="120.137"/>
    <use height="100%" width="100%" x="371.07" xlink:href="#o" y="120.137"/>
    <use height="100%" width="100%" x="377.744" xlink:href="#w" y="120.137"/>
  </g>
  <path d="m291.223 48.528-4.286-1.914-4.351-1.762-4.406-1.613-4.461-1.465-4.508-1.308-4.547-1.157-4.586-1-4.617-.84-4.645-.687-4.664-.523-4.68-.368-4.69-.207-4.692-.047-4.692.114-4.687.273-4.672.434-4.656.594-4.637.75-4.601.906-4.575 1.066-4.53 1.219-4.49 1.375 42.52 130.867zm0 0" style="fill:#a6d751;stroke:#000;stroke-width:.75;stroke-linecap:round;stroke-linejoin:round;stroke-miterlimit:10"/>
  <path d="m241.473 35.891.418-6.867" style="fill:none;stroke:#000;stroke-width:.75;stroke-linecap:round;stroke-linejoin:round;stroke-miterlimit:10"/>
  <g transform="translate(-53.856 -82.184)">
    <use height="100%" width="100%" x="275.641" xlink:href="#z" y="90.824"/>
    <use height="100%" width="100%" x="283.645" xlink:href="#t" y="90.824"/>
    <use height="100%" width="100%" x="290.318" xlink:href="#q" y="90.824"/>
    <use height="100%" width="100%" x="296.318" xlink:href="#m" y="90.824"/>
    <use height="100%" width="100%" x="302.992" xlink:href="#l" y="90.824"/>
    <use height="100%" width="100%" x="306.988" xlink:href="#d" y="90.824"/>
    <use height="100%" width="100%" x="310.322" xlink:href="#k" y="90.824"/>
    <use height="100%" width="100%" x="312.988" xlink:href="#c" y="90.824"/>
    <use height="100%" width="100%" x="318.988" xlink:href="#k" y="90.824"/>
    <use height="100%" width="100%" x="321.654" xlink:href="#o" y="90.824"/>
    <use height="100%" width="100%" x="328.328" xlink:href="#w" y="90.824"/>
    <use height="100%" width="100%" x="335.002" xlink:href="#e" y="90.824"/>
    <use height="100%" width="100%" x="338.336" xlink:href="#g" y="90.824"/>
    <use height="100%" width="100%" x="345.01" xlink:href="#o" y="90.824"/>
    <use height="100%" width="100%" x="351.684" xlink:href="#t" y="90.824"/>
  </g>
  <g transform="translate(-53.856 -82.184)">
    <use height="100%" width="100%" x="275.641" xlink:href="#u" y="105.227"/>
    <use height="100%" width="100%" x="282.314" xlink:href="#l" y="105.227"/>
    <use height="100%" width="100%" x="286.311" xlink:href="#b" y="105.227"/>
    <use height="100%" width="100%" x="292.984" xlink:href="#A" y="105.227"/>
    <use height="100%" width="100%" x="302.98" xlink:href="#b" y="105.227"/>
    <use height="100%" width="100%" x="309.654" xlink:href="#d" y="105.227"/>
    <use height="100%" width="100%" x="312.988" xlink:href="#k" y="105.227"/>
    <use height="100%" width="100%" x="315.654" xlink:href="#b" y="105.227"/>
    <use height="100%" width="100%" x="322.328" xlink:href="#o" y="105.227"/>
  </g>
  <path d="m190.55 42.368-5.105 1.77-5.03 1.972-4.95 2.164-4.863 2.36-4.766 2.546-4.66 2.73-4.551 2.915-4.434 3.09 80.88 111.32zm0 0" style="fill:#66c2a3;stroke:#000;stroke-width:.75;stroke-linecap:round;stroke-linejoin:round;stroke-miterlimit:10"/>
  <path d="M170.602 50.634 167.48 44.5" style="fill:none;stroke:#000;stroke-width:.75;stroke-linecap:round;stroke-linejoin:round;stroke-miterlimit:10"/>
  <g transform="translate(-33.328 -71.566)">
    <use height="100%" width="100%" x="150.988" xlink:href="#n" y="107.039"/>
    <use height="100%" width="100%" x="154.322" xlink:href="#o" y="107.039"/>
    <use height="100%" width="100%" x="160.996" xlink:href="#d" y="107.039"/>
    <use height="100%" width="100%" x="164.33" xlink:href="#m" y="107.039"/>
    <use height="100%" width="100%" x="171.004" xlink:href="#l" y="107.039"/>
    <use height="100%" width="100%" x="175" xlink:href="#o" y="107.039"/>
    <use height="100%" width="100%" x="181.674" xlink:href="#g" y="107.039"/>
    <use height="100%" width="100%" x="188.348" xlink:href="#p" y="107.039"/>
    <use height="100%" width="100%" x="191.014" xlink:href="#e" y="107.039"/>
    <use height="100%" width="100%" x="194.348" xlink:href="#s" y="107.039"/>
  </g>
  <g transform="translate(-33.328 -71.566)">
    <use height="100%" width="100%" x="92.316" xlink:href="#g" y="121.441"/>
    <use height="100%" width="100%" x="98.99" xlink:href="#t" y="121.441"/>
    <use height="100%" width="100%" x="105.664" xlink:href="#A" y="121.441"/>
    <use height="100%" width="100%" x="115.66" xlink:href="#k" y="121.441"/>
    <use height="100%" width="100%" x="118.326" xlink:href="#o" y="121.441"/>
    <use height="100%" width="100%" x="125" xlink:href="#k" y="121.441"/>
    <use height="100%" width="100%" x="127.666" xlink:href="#c" y="121.441"/>
    <use height="100%" width="100%" x="133.666" xlink:href="#d" y="121.441"/>
    <use height="100%" width="100%" x="137" xlink:href="#l" y="121.441"/>
    <use height="100%" width="100%" x="140.996" xlink:href="#g" y="121.441"/>
    <use height="100%" width="100%" x="147.67" xlink:href="#d" y="121.441"/>
    <use height="100%" width="100%" x="151.004" xlink:href="#k" y="121.441"/>
    <use height="100%" width="100%" x="153.67" xlink:href="#q" y="121.441"/>
    <use height="100%" width="100%" x="159.67" xlink:href="#m" y="121.441"/>
    <use height="100%" width="100%" x="166.344" xlink:href="#e" y="121.441"/>
    <use height="100%" width="100%" x="169.678" xlink:href="#h" y="121.441"/>
    <use height="100%" width="100%" x="175.678" xlink:href="#b" y="121.441"/>
    <use height="100%" width="100%" x="182.352" xlink:href="#c" y="121.441"/>
    <use height="100%" width="100%" x="188.352" xlink:href="#d" y="121.441"/>
    <use height="100%" width="100%" x="191.686" xlink:href="#c" y="121.441"/>
  </g>
  <path d="m152.191 61.915-3.75 2.82-3.648 2.953-3.55 3.07-3.442 3.192-3.332 3.309-3.215 3.418-3.098 3.527-2.976 3.629-2.848 3.73-2.723 3.825-2.59 3.914-2.453 4-2.316 4.082-2.176 4.16-2.031 4.23-1.887 4.301-1.738 4.36-1.59 4.413-1.437 4.47-1.286 4.515-1.132 4.555-.973 4.59 135.07 26.257zm0 0" style="fill:#fa8c61;stroke:#000;stroke-width:.75;stroke-linecap:round;stroke-linejoin:round;stroke-miterlimit:10"/>
  <path d="m117.02 99.302-5.801-3.696" style="fill:none;stroke:#000;stroke-width:.75;stroke-linecap:round;stroke-linejoin:round;stroke-miterlimit:10"/>
  <g transform="translate(-33.328 -71.566)">
    <use height="100%" width="100%" x="56.047" xlink:href="#B" y="160.578"/>
    <use height="100%" width="100%" x="63.377" xlink:href="#m" y="160.578"/>
    <use height="100%" width="100%" x="70.051" xlink:href="#h" y="160.578"/>
    <use height="100%" width="100%" x="76.051" xlink:href="#x" y="160.578"/>
    <use height="100%" width="100%" x="82.725" xlink:href="#o" y="160.578"/>
    <use height="100%" width="100%" x="89.398" xlink:href="#k" y="160.578"/>
    <use height="100%" width="100%" x="92.064" xlink:href="#h" y="160.578"/>
    <use height="100%" width="100%" x="98.064" xlink:href="#g" y="160.578"/>
    <use height="100%" width="100%" x="104.738" xlink:href="#p" y="160.578"/>
    <use height="100%" width="100%" x="107.404" xlink:href="#e" y="160.578"/>
    <use height="100%" width="100%" x="110.738" xlink:href="#h" y="160.578"/>
    <use height="100%" width="100%" x="116.738" xlink:href="#b" y="160.578"/>
    <use height="100%" width="100%" x="123.412" xlink:href="#c" y="160.578"/>
    <use height="100%" width="100%" x="129.412" xlink:href="#d" y="160.578"/>
    <use height="100%" width="100%" x="132.746" xlink:href="#c" y="160.578"/>
  </g>
  <g transform="translate(-33.328 -71.566)">
    <use height="100%" width="100%" x="44.043" xlink:href="#C" y="174.977"/>
    <use height="100%" width="100%" x="48.039" xlink:href="#u" y="174.977"/>
    <use height="100%" width="100%" x="54.713" xlink:href="#l" y="174.977"/>
    <use height="100%" width="100%" x="58.709" xlink:href="#k" y="174.977"/>
    <use height="100%" width="100%" x="61.375" xlink:href="#o" y="174.977"/>
    <use height="100%" width="100%" x="68.049" xlink:href="#d" y="174.977"/>
    <use height="100%" width="100%" x="71.383" xlink:href="#D" y="174.977"/>
    <use height="100%" width="100%" x="74.717" xlink:href="#e" y="174.977"/>
    <use height="100%" width="100%" x="78.051" xlink:href="#u" y="174.977"/>
    <use height="100%" width="100%" x="84.725" xlink:href="#g" y="174.977"/>
    <use height="100%" width="100%" x="91.398" xlink:href="#u" y="174.977"/>
    <use height="100%" width="100%" x="98.072" xlink:href="#m" y="174.977"/>
    <use height="100%" width="100%" x="104.746" xlink:href="#l" y="174.977"/>
    <use height="100%" width="100%" x="108.742" xlink:href="#D" y="174.977"/>
    <use height="100%" width="100%" x="112.076" xlink:href="#e" y="174.977"/>
    <use height="100%" width="100%" x="115.41" xlink:href="#m" y="174.977"/>
    <use height="100%" width="100%" x="122.084" xlink:href="#d" y="174.977"/>
    <use height="100%" width="100%" x="125.418" xlink:href="#h" y="174.977"/>
    <use height="100%" width="100%" x="131.418" xlink:href="#E" y="174.977"/>
    <use height="100%" width="100%" x="134.752" xlink:href="#F" y="174.977"/>
  </g>
  <path d="m98 146.977-.91 5.207-.707 5.235-.504 5.258-.305 5.277-.101 5.281H233.07zm0 0" style="fill:#8c9eca;stroke:#000;stroke-width:.75;stroke-linecap:round;stroke-linejoin:round;stroke-miterlimit:10"/>
  <path d="m96.105 160.048-6.847-.66" style="fill:none;stroke:#000;stroke-width:.75;stroke-linecap:round;stroke-linejoin:round;stroke-miterlimit:10"/>
  <g transform="translate(-33.328 -71.566)">
    <use height="100%" width="100%" x="32.359" xlink:href="#G" y="227.398"/>
    <use height="100%" width="100%" x="41.025" xlink:href="#k" y="227.398"/>
    <use height="100%" width="100%" x="43.691" xlink:href="#c" y="227.398"/>
    <use height="100%" width="100%" x="49.691" xlink:href="#d" y="227.398"/>
    <use height="100%" width="100%" x="53.025" xlink:href="#l" y="227.398"/>
    <use height="100%" width="100%" x="57.021" xlink:href="#k" y="227.398"/>
    <use height="100%" width="100%" x="59.688" xlink:href="#H" y="227.398"/>
    <use height="100%" width="100%" x="66.361" xlink:href="#j" y="227.398"/>
    <use height="100%" width="100%" x="73.035" xlink:href="#d" y="227.398"/>
    <use height="100%" width="100%" x="76.369" xlink:href="#k" y="227.398"/>
    <use height="100%" width="100%" x="79.035" xlink:href="#b" y="227.398"/>
    <use height="100%" width="100%" x="85.709" xlink:href="#o" y="227.398"/>
    <use height="100%" width="100%" x="92.383" xlink:href="#e" y="227.398"/>
    <use height="100%" width="100%" x="95.717" xlink:href="#g" y="227.398"/>
    <use height="100%" width="100%" x="102.391" xlink:href="#o" y="227.398"/>
    <use height="100%" width="100%" x="109.064" xlink:href="#t" y="227.398"/>
  </g>
  <g transform="translate(-33.328 -71.566)">
    <use height="100%" width="100%" x="87.059" xlink:href="#d" y="241.797"/>
    <use height="100%" width="100%" x="90.393" xlink:href="#g" y="241.797"/>
    <use height="100%" width="100%" x="97.066" xlink:href="#I" y="241.797"/>
    <use height="100%" width="100%" x="103.066" xlink:href="#m" y="241.797"/>
    <use height="100%" width="100%" x="109.74" xlink:href="#c" y="241.797"/>
  </g>
  <path d="m95.473 173.235.07 4.363.207 4.364.344 4.351.484 4.34.621 4.32.758 4.301.895 4.274 1.03 4.246 1.165 4.207 1.297 4.168 1.426 4.129 1.558 4.078 1.688 4.027 1.812 3.973 1.942 3.91 2.062 3.848 2.18 3.78 2.304 3.712 2.418 3.637 2.532 3.554 2.644 3.477 2.754 3.386 2.86 3.301 2.96 3.207 3.067 3.114 3.156 3.011 3.258 2.914 3.344 2.805 3.43 2.7 3.519 2.59 3.594 2.476 3.675 2.359 3.746 2.242 3.813 2.125 3.883 2 3.941 1.875 4 1.75 4.055 1.625 4.101 1.492 4.149 1.364 4.191 1.23 4.227 1.094 4.258.965 4.289.824 4.308.691 4.332.551 4.348.418 4.355.277 4.368.137h4.363l4.367-.137 4.356-.277 4.347-.418 4.332-.55 4.309-.692 4.289-.824 4.258-.965 4.226-1.094 4.192-1.23 4.148-1.364 4.102-1.492 4.054-1.625 4-1.75 3.942-1.875 3.879-2 3.816-2.125 3.746-2.242 3.676-2.36 3.594-2.476 3.515-2.59 3.434-2.699 3.344-2.805 3.254-2.914 3.16-3.011 3.062-3.114 2.965-3.207 2.86-3.3 2.753-3.387 2.645-3.477 2.531-3.554 2.418-3.637 2.3-3.711 2.184-3.781 2.063-3.848 1.941-3.91 1.813-3.973 1.687-4.027 1.559-4.078 1.426-4.13 1.297-4.167 1.164-4.207 1.027-4.246.895-4.274.761-4.3.621-4.32.48-4.34.349-4.352.207-4.364.07-4.363zm0 0" style="fill:#e68ac2;stroke:#000;stroke-width:.75;stroke-linecap:round;stroke-linejoin:round;stroke-miterlimit:10"/>
  <path d="M233.07 310.833v6.883" style="fill:none;stroke:#000;stroke-width:.75;stroke-linecap:round;stroke-linejoin:round;stroke-miterlimit:10"/>
  <g transform="translate(4.897 -71.566)">
    <use height="100%" width="100%" x="172.355" xlink:href="#J" y="399.137"/>
    <use height="100%" width="100%" x="180.359" xlink:href="#b" y="399.137"/>
    <use height="100%" width="100%" x="187.033" xlink:href="#b" y="399.137"/>
    <use height="100%" width="100%" x="193.707" xlink:href="#K" y="399.137"/>
    <use height="100%" width="100%" x="199.707" xlink:href="#c" y="399.137"/>
    <use height="100%" width="100%" x="205.707" xlink:href="#d" y="399.137"/>
    <use height="100%" width="100%" x="209.041" xlink:href="#b" y="399.137"/>
    <use height="100%" width="100%" x="215.715" xlink:href="#l" y="399.137"/>
    <use height="100%" width="100%" x="219.711" xlink:href="#m" y="399.137"/>
    <use height="100%" width="100%" x="226.385" xlink:href="#e" y="399.137"/>
    <use height="100%" width="100%" x="229.719" xlink:href="#A" y="399.137"/>
    <use height="100%" width="100%" x="239.715" xlink:href="#g" y="399.137"/>
    <use height="100%" width="100%" x="246.389" xlink:href="#l" y="399.137"/>
    <use height="100%" width="100%" x="250.385" xlink:href="#w" y="399.137"/>
    <use height="100%" width="100%" x="257.059" xlink:href="#k" y="399.137"/>
    <use height="100%" width="100%" x="259.725" xlink:href="#o" y="399.137"/>
  </g>
</svg>
